<?xml version="1.0" encoding="utf-8"?>
<!-- Generator: Adobe Illustrator 24.0.2, SVG Export Plug-In . SVG Version: 6.00 Build 0)  -->
<svg version="1.1" id="Livello_1" xmlns="http://www.w3.org/2000/svg" xmlns:xlink="http://www.w3.org/1999/xlink" x="0px" y="0px"
	 viewBox="0 0 351.9 72.9" style="enable-background:new 0 0 351.9 72.9;" xml:space="preserve">
<style type="text/css">
	.st0{fill:#036AFF;}
	.st1{fill:#07F8AD;}
	.st2{fill:#0768DD;}
	.st3{fill:#1E82F9;}
	.st4{opacity:0.73;fill:#07F8AD;enable-background:new    ;}
	.st5{fill:#0DB779;}
</style>
<g>
	<g>
		<rect x="195.9" y="13.4" class="st0" width="9.7" height="30.4"/>
		<path class="st0" d="M230.5,13.2l-0.4,9.7h-1.8c-6.8,0-10.5,3.5-10.5,11.4v9.5h-9.7V13.4h9.7v5.8c2.2-3.6,5.5-6.2,10.5-6.2
			C229.2,12.9,229.8,13,230.5,13.2z"/>
		<path class="st1" d="M240.5,33.9c0.4,2.6,2.8,3.6,5.4,3.6c2.6,0,3.9-1.1,3.9-2.4c0-1-0.8-1.8-3-2.2l-6.2-1.2
			c-5.6-1-8.9-4.1-8.9-8.9c0-6.2,5.4-10.3,13.1-10.3c7.6,0,12.6,3.4,13.8,8.7l-8.9,1.8c-0.3-1.9-2.1-3.6-5.1-3.6
			c-2.6,0-3.4,1.3-3.4,2.4c0,0.9,0.4,1.7,2.3,2.1l7.1,1.5c5.8,1.2,8.4,4.7,8.4,9.2c0,6.7-5.8,10.2-13.8,10.2
			c-7.1,0-13.3-2.6-14.3-8.8L240.5,33.9z"/>
		<path class="st1" d="M294.7,28.6c0,9.6-6.8,16.1-14.9,16.1c-3.9,0-7.1-1.2-9.5-3.3v12.7h-9.7V13.4h9.7v2.4
			c2.4-2.1,5.5-3.3,9.5-3.3C287.9,12.5,294.7,19,294.7,28.6z M285.2,28.6c0-4.7-3.1-7.9-7.3-7.9c-3.9,0-7.5,3.2-7.5,7.9
			c0,4.7,3.5,7.9,7.5,7.9C282.1,36.5,285.2,33.3,285.2,28.6z"/>
		<path class="st1" d="M329.1,28.6c0,9.6-7.6,16.1-16.7,16.1c-9.2,0-16.8-6.4-16.8-16.1c0-9.6,7.6-16,16.8-16
			C321.5,12.6,329.1,19,329.1,28.6z M319.8,28.6c0-4.7-3.6-7.9-7.3-7.9c-3.9,0-7.5,3.1-7.5,7.9c0,4.8,3.6,7.9,7.5,7.9
			C316.2,36.5,319.8,33.4,319.8,28.6z"/>
		<path class="st1" d="M348.7,34.8c-1.3,0.7-3.1,1.2-4.4,1.2c-2.5,0-4.1-1.3-4.1-4.4V21.1h9v-7.7h-9v-9h-9.7v16.7v11.5
			c0,8,4.5,12.1,12.1,12.1c3.5,0,5.9-1,8.3-2.2L348.7,34.8z"/>
		<path class="st0" d="M185,43.8l-2.9-7.4H165l-2.9,7.4h-10.7l17-40.6h10.2l17,40.6H185z M173.6,14.5l-5.1,13.3h10.4L173.6,14.5z"/>
	</g>
	<g>
		<path class="st2" d="M111.2,27.5H44.2c-7.3,0-13.5,5-15.4,11.7h40.7c6.5,0,11.8,5.3,11.8,11.8l0,0c0,3.3-1.4,6.3-3.6,8.5h33.4
			c8.8,0,16-7.2,16-16l0,0C127.2,34.6,120,27.5,111.2,27.5z"/>
		<circle class="st3" cx="83.9" cy="26.4" r="25.4"/>
		<circle class="st0" cx="51.6" cy="25.3" r="17"/>
		<g>
			<path class="st1" d="M79.8,43.5H18.9c-0.5,0-1-0.4-1-1v-2.9c0-0.5,0.4-1,1-1h60.8c0.5,0,1,0.4,1,1v2.9
				C80.7,43.1,80.3,43.5,79.8,43.5z"/>
			<g>
				<path class="st4" d="M63.8,54.1H3c-0.5,0-1-0.4-1-1v-2.9c0-0.5,0.4-1,1-1h60.8c0.5,0,1,0.4,1,1v2.9
					C64.8,53.7,64.3,54.1,63.8,54.1z"/>
			</g>
			<rect x="74.8" y="37.2" transform="matrix(0.7071 -0.7071 0.7071 0.7071 -6.0187 67.7576)" class="st5" width="8" height="8"/>
			
				<rect x="61.1" y="49" transform="matrix(0.7071 -0.7071 0.7071 0.7071 -17.8685 60.2091)" class="st5" width="5.3" height="5.3"/>
		</g>
	</g>
	<g>
		<path class="st0" d="M158,66.1c-0.3,0.3-0.7,0.6-1,0.8c-0.4,0.2-0.8,0.3-1.3,0.3c-0.4,0-0.7-0.1-1.1-0.2c-0.3-0.1-0.6-0.3-0.9-0.6
			c-0.2-0.3-0.4-0.6-0.6-0.9c-0.1-0.4-0.2-0.7-0.2-1.1c0-0.4,0.1-0.8,0.2-1.1c0.1-0.4,0.3-0.7,0.6-0.9c0.2-0.3,0.5-0.5,0.8-0.6
			c0.3-0.1,0.7-0.2,1-0.2c0.5,0,0.9,0.1,1.3,0.3c0.4,0.2,0.7,0.5,1,0.8l0.2,0.2l1.1-1.2l-0.2-0.2c-0.2-0.2-0.4-0.4-0.6-0.6
			c-0.2-0.2-0.5-0.3-0.8-0.5c-0.3-0.1-0.6-0.2-0.9-0.3c-0.9-0.2-2-0.1-2.9,0.2c-0.5,0.2-1,0.6-1.4,1c-0.4,0.4-0.7,0.9-0.9,1.4
			c-0.2,0.5-0.3,1.1-0.3,1.7c0,0.6,0.1,1.2,0.3,1.7c0.2,0.5,0.5,1,0.9,1.4c0.4,0.4,0.9,0.7,1.4,1c0.5,0.2,1.1,0.4,1.8,0.4
			c0.8,0,1.5-0.2,2-0.5c0.6-0.3,1-0.7,1.5-1.2l0.2-0.2l-1.1-1.1L158,66.1z"/>
		<rect x="160.7" y="56.7" class="st0" width="1.7" height="11.9"/>
		<path class="st0" d="M171.9,61.2c-0.4-0.4-0.9-0.7-1.4-1c-1.1-0.5-2.4-0.5-3.6,0c-0.5,0.2-1,0.6-1.4,1c-0.4,0.4-0.7,0.9-0.9,1.4
			c-0.2,0.5-0.3,1.1-0.3,1.7c0,0.6,0.1,1.2,0.3,1.7c0.2,0.5,0.5,1,0.9,1.4c0.4,0.4,0.9,0.7,1.4,1c0.5,0.2,1.1,0.4,1.8,0.4
			c0.6,0,1.2-0.1,1.8-0.4c0.6-0.2,1-0.6,1.4-1c0.4-0.4,0.7-0.9,0.9-1.4c0.2-0.6,0.3-1.1,0.3-1.7c0-0.6-0.1-1.2-0.3-1.7
			C172.6,62.1,172.3,61.6,171.9,61.2z M171.4,64.4c0,0.4-0.1,0.8-0.2,1.1c-0.1,0.4-0.3,0.7-0.6,0.9c-0.2,0.2-0.5,0.5-0.9,0.6
			c-0.6,0.3-1.5,0.3-2.2,0c-0.3-0.2-0.6-0.4-0.9-0.6c-0.2-0.3-0.4-0.6-0.6-0.9c-0.1-0.4-0.2-0.7-0.2-1.1c0-0.4,0.1-0.8,0.2-1.1
			c0.1-0.3,0.3-0.6,0.6-0.9c0.2-0.3,0.5-0.5,0.8-0.6c0.3-0.1,0.7-0.2,1.1-0.2c0.4,0,0.8,0.1,1.1,0.2c0.4,0.2,0.6,0.4,0.9,0.6
			c0.2,0.3,0.4,0.6,0.6,0.9C171.3,63.6,171.4,63.9,171.4,64.4z"/>
		<path class="st0" d="M180.5,65c0,0.3-0.1,0.6-0.2,0.9c-0.1,0.3-0.3,0.5-0.5,0.7c-0.2,0.2-0.4,0.4-0.7,0.5
			c-0.3,0.1-0.6,0.2-0.9,0.2c-0.6,0-1.1-0.2-1.5-0.6c-0.3-0.4-0.5-0.9-0.5-1.6v-5h-1.7v5.3c0,0.5,0.1,1,0.2,1.4
			c0.1,0.4,0.4,0.8,0.7,1.1c0.3,0.3,0.6,0.5,1.1,0.7c0.4,0.2,0.9,0.2,1.4,0.2c0.7,0,1.4-0.2,1.8-0.5c0.2-0.2,0.5-0.4,0.7-0.6v0.9
			h1.7v-8.6h-1.7V65z"/>
		<path class="st0" d="M190.9,61.2c0,0-0.1-0.1-0.1-0.1c-0.2-0.2-0.5-0.4-0.7-0.6c-0.3-0.2-0.6-0.3-0.9-0.4
			c-0.8-0.2-1.7-0.2-2.6,0.2c-0.5,0.2-0.9,0.5-1.3,0.9c-0.4,0.4-0.7,0.9-0.9,1.4c-0.2,0.5-0.3,1.2-0.3,1.9s0.1,1.3,0.3,1.9
			c0.2,0.5,0.5,1,0.9,1.4c0.4,0.4,0.8,0.7,1.3,0.9c0.5,0.2,1,0.3,1.5,0.3c0.4,0,0.7-0.1,1.1-0.2c0.3-0.1,0.6-0.2,0.9-0.4
			c0.3-0.2,0.5-0.4,0.7-0.6c0,0,0.1-0.1,0.1-0.1v1.1h1.7V56.7h-1.7V61.2z M190.1,62.3c0.3,0.2,0.5,0.5,0.6,0.9
			c0.2,0.3,0.2,0.7,0.2,1.2c0,0.4-0.1,0.8-0.2,1.2c-0.2,0.4-0.4,0.7-0.6,0.9c-0.3,0.3-0.5,0.4-0.9,0.6c-0.6,0.3-1.4,0.3-2,0
			c-0.3-0.1-0.6-0.3-0.8-0.6c-0.2-0.3-0.4-0.6-0.6-0.9c-0.1-0.4-0.2-0.8-0.2-1.2c0-0.4,0.1-0.9,0.2-1.2c0.1-0.4,0.3-0.7,0.6-0.9
			c0.2-0.2,0.5-0.4,0.8-0.6c0.3-0.1,0.7-0.2,1-0.2c0.3,0,0.7,0.1,1,0.2C189.6,61.8,189.9,62,190.1,62.3z"/>
		<path class="st0" d="M206.1,60.9L206.1,60.9c-0.3-0.3-0.7-0.6-1.1-0.7c-0.4-0.2-0.9-0.2-1.4-0.2c-0.8,0-1.4,0.2-1.8,0.5
			c-0.2,0.2-0.5,0.4-0.7,0.6v-0.9h-1.7v8.6h1.7v-4.9c0-0.3,0.1-0.7,0.2-0.9c0.1-0.3,0.3-0.5,0.5-0.7c0.2-0.2,0.4-0.4,0.7-0.5
			c0.3-0.1,0.6-0.2,0.9-0.2c0.6,0,1.1,0.2,1.5,0.6c0.3,0.4,0.5,0.9,0.5,1.6v5h1.7v-5.3c0-0.5-0.1-1-0.2-1.4
			C206.7,61.6,206.4,61.2,206.1,60.9z"/>
		<path class="st0" d="M212.4,60c-0.6,0-1.2,0.1-1.6,0.2c-0.5,0.1-0.9,0.3-1.4,0.5l-0.2,0.1l0.5,1.5l0.2-0.1
			c0.4-0.2,0.7-0.3,1.1-0.4c0.3-0.1,0.8-0.2,1.2-0.2c0.7,0,1.2,0.2,1.6,0.5c0.4,0.3,0.5,0.8,0.5,1.4c-0.3-0.1-0.6-0.1-0.8-0.2
			c-0.4-0.1-0.9-0.1-1.4-0.1c-0.5,0-1,0.1-1.5,0.2c-0.5,0.1-0.8,0.3-1.2,0.5c-0.3,0.2-0.6,0.5-0.8,0.9c-0.2,0.4-0.3,0.8-0.3,1.2
			c0,0.5,0.1,0.9,0.3,1.2c0.2,0.4,0.5,0.6,0.8,0.9c0.3,0.2,0.7,0.4,1,0.5c0.4,0.1,0.8,0.2,1.2,0.2c0.8,0,1.4-0.2,1.9-0.5
			c0.3-0.2,0.5-0.4,0.8-0.6v0.8h1.7v-5.2c0-1.1-0.3-2-1-2.6C214.5,60.3,213.6,60,212.4,60z M214.4,64.8v0.6c0,0.3-0.1,0.5-0.2,0.8
			s-0.3,0.4-0.5,0.6c-0.2,0.2-0.5,0.3-0.8,0.4c-0.5,0.2-1.1,0.2-1.7,0c-0.2-0.1-0.4-0.2-0.6-0.3c-0.2-0.1-0.3-0.3-0.4-0.4
			c-0.1-0.2-0.1-0.4-0.1-0.6c0-0.4,0.2-0.8,0.5-1c0.3-0.3,0.9-0.4,1.5-0.4c0.5,0,0.9,0,1.4,0.1C213.9,64.7,214.2,64.8,214.4,64.8z"
			/>
		<path class="st0" d="M220.2,57.6h-1.7v2.4h-1.1v1.6h1.1v4.6c0,0.5,0.1,0.8,0.2,1.1c0.1,0.3,0.3,0.6,0.5,0.8
			c0.2,0.2,0.5,0.4,0.8,0.5c0.3,0.1,0.6,0.1,1,0.1c0.3,0,0.6,0,0.9-0.1c0.2-0.1,0.5-0.2,0.7-0.3l0.1-0.1v-1.6l-0.4,0.2
			c-0.2,0.1-0.4,0.2-0.5,0.2c-0.5,0.1-1,0.1-1.4-0.2c-0.2-0.1-0.3-0.4-0.3-0.9v-4.5h2.6v-1.6h-2.6V57.6z"/>
		<rect x="224.4" y="57" class="st0" width="1.9" height="1.8"/>
		<rect x="224.5" y="60.1" class="st0" width="1.7" height="8.6"/>
		<polygon class="st0" points="232,66.4 229.4,60.1 227.5,60.1 231.2,68.5 231.3,68.7 232.6,68.7 236.4,60.1 234.5,60.1 		"/>
		<path class="st0" d="M243.8,61.2L243.8,61.2c-0.4-0.4-0.8-0.8-1.3-1c-0.5-0.2-1.1-0.4-1.7-0.4c-0.6,0-1.2,0.1-1.7,0.4
			c-0.5,0.2-1,0.6-1.3,1c-0.4,0.4-0.7,0.9-0.8,1.4c-0.2,0.6-0.3,1.1-0.3,1.7c0,0.7,0.1,1.3,0.3,1.8c0.2,0.5,0.5,1,0.9,1.4
			c0.4,0.4,0.8,0.7,1.4,0.9s1.1,0.3,1.7,0.3c0.8,0,1.5-0.1,2-0.4c0.6-0.3,1-0.7,1.5-1.2l0.2-0.2l-1.1-1l-0.2,0.2
			c-0.3,0.3-0.6,0.6-1,0.8c-0.4,0.2-0.8,0.3-1.3,0.3c-0.3,0-0.6-0.1-0.9-0.2c-0.3-0.1-0.5-0.3-0.8-0.5c-0.2-0.2-0.4-0.5-0.6-0.8
			c-0.1-0.3-0.2-0.5-0.3-0.8h6.1l0.2,0l0-0.2c0-0.1,0-0.2,0-0.2v-0.2c0-0.6-0.1-1.2-0.3-1.7C244.4,62.1,244.1,61.7,243.8,61.2z
			 M243,63.7h-4.6c0-0.3,0.1-0.5,0.2-0.7c0.1-0.3,0.3-0.6,0.5-0.8c0.2-0.2,0.4-0.4,0.7-0.5c0.6-0.3,1.3-0.2,1.8,0
			c0.3,0.1,0.5,0.3,0.7,0.5c0.2,0.2,0.3,0.5,0.5,0.8C242.9,63.2,243,63.4,243,63.7z"/>
		<path class="st0" d="M257.6,61.2c0,0-0.1-0.1-0.1-0.1c-0.2-0.2-0.5-0.4-0.7-0.6c-0.3-0.2-0.6-0.3-0.9-0.4
			c-0.8-0.2-1.7-0.2-2.6,0.2c-0.5,0.2-0.9,0.5-1.3,0.9c-0.4,0.4-0.7,0.9-0.9,1.4c-0.2,0.5-0.3,1.2-0.3,1.9s0.1,1.3,0.3,1.9
			c0.2,0.6,0.5,1,0.9,1.4c0.4,0.4,0.8,0.7,1.3,0.9c0.5,0.2,1,0.3,1.5,0.3c0.4,0,0.7-0.1,1.1-0.2c0.3-0.1,0.6-0.2,0.9-0.4
			c0.3-0.2,0.5-0.4,0.7-0.6c0,0,0.1-0.1,0.1-0.1v1.1h1.7V56.7h-1.7V61.2z M256.8,62.3c0.3,0.2,0.5,0.5,0.6,0.9
			c0.2,0.3,0.2,0.7,0.2,1.2c0,0.4-0.1,0.8-0.2,1.2c-0.2,0.4-0.4,0.7-0.6,0.9c-0.3,0.3-0.5,0.4-0.9,0.6c-0.6,0.3-1.3,0.3-2,0
			c-0.3-0.1-0.6-0.3-0.8-0.6c-0.2-0.3-0.4-0.6-0.6-0.9c-0.1-0.4-0.2-0.8-0.2-1.2c0-0.4,0.1-0.9,0.2-1.2c0.1-0.4,0.3-0.7,0.6-0.9
			c0.2-0.2,0.5-0.4,0.8-0.6c0.3-0.1,0.6-0.2,1-0.2c0.3,0,0.7,0.1,1,0.2C256.2,61.8,256.5,62,256.8,62.3z"/>
		<path class="st0" d="M268,61.2L268,61.2c-0.4-0.4-0.8-0.8-1.3-1c-0.5-0.2-1.1-0.4-1.7-0.4c-0.6,0-1.1,0.1-1.7,0.4
			c-0.5,0.2-1,0.6-1.3,1c-0.4,0.4-0.7,0.9-0.8,1.4c-0.2,0.6-0.3,1.1-0.3,1.7c0,0.7,0.1,1.3,0.3,1.8c0.2,0.5,0.5,1,0.9,1.4
			c0.4,0.4,0.8,0.7,1.4,0.9c0.5,0.2,1.1,0.3,1.7,0.3c0.8,0,1.5-0.1,2-0.4c0.6-0.3,1-0.7,1.5-1.2l0.2-0.2l-1.1-1l-0.2,0.2
			c-0.3,0.3-0.6,0.6-1,0.8c-0.4,0.2-0.8,0.3-1.3,0.3c-0.3,0-0.6-0.1-0.9-0.2c-0.3-0.1-0.6-0.3-0.8-0.5c-0.2-0.2-0.4-0.5-0.6-0.8
			c-0.1-0.3-0.2-0.5-0.3-0.8h6.1l0.2,0l0-0.2c0-0.1,0-0.2,0-0.2v-0.2c0-0.6-0.1-1.2-0.3-1.7C268.7,62.1,268.4,61.7,268,61.2z
			 M267.3,63.7h-4.6c0-0.3,0.1-0.5,0.2-0.7c0.1-0.3,0.3-0.6,0.5-0.8c0.2-0.2,0.4-0.4,0.7-0.5c0.6-0.3,1.3-0.2,1.8,0
			c0.3,0.1,0.5,0.3,0.7,0.5c0.2,0.2,0.3,0.5,0.5,0.8C267.2,63.2,267.3,63.4,267.3,63.7z"/>
		<polygon class="st0" points="273.8,66.4 271.2,60.1 269.4,60.1 273,68.5 273.1,68.7 274.5,68.7 278.2,60.1 276.4,60.1 		"/>
		<path class="st0" d="M285.6,61.2L285.6,61.2c-0.4-0.4-0.8-0.8-1.3-1c-0.5-0.2-1.1-0.4-1.7-0.4c-0.6,0-1.1,0.1-1.7,0.4
			c-0.5,0.2-1,0.6-1.3,1c-0.4,0.4-0.7,0.9-0.8,1.4c-0.2,0.6-0.3,1.1-0.3,1.7c0,0.7,0.1,1.3,0.3,1.8c0.2,0.5,0.5,1,0.9,1.4
			c0.4,0.4,0.8,0.7,1.4,0.9s1.1,0.3,1.7,0.3c0.8,0,1.5-0.1,2-0.4c0.6-0.3,1-0.7,1.5-1.2l0.2-0.2l-1.1-1l-0.2,0.2
			c-0.3,0.3-0.6,0.6-1,0.8c-0.4,0.2-0.8,0.3-1.3,0.3c-0.3,0-0.6-0.1-0.9-0.2c-0.3-0.1-0.5-0.3-0.8-0.5c-0.2-0.2-0.4-0.5-0.6-0.8
			c-0.1-0.2-0.2-0.5-0.3-0.8h6.1l0.2,0l0-0.2c0-0.1,0-0.2,0-0.2v-0.2c0-0.6-0.1-1.2-0.3-1.7C286.2,62.1,285.9,61.7,285.6,61.2z
			 M284.9,63.7h-4.6c0-0.3,0.1-0.5,0.2-0.7c0.1-0.3,0.3-0.6,0.5-0.8c0.2-0.2,0.4-0.4,0.7-0.5c0.6-0.3,1.3-0.2,1.8,0
			c0.3,0.1,0.5,0.3,0.7,0.5c0.2,0.2,0.3,0.5,0.5,0.8C284.8,63.2,284.8,63.4,284.9,63.7z"/>
		<rect x="288.3" y="56.7" class="st0" width="1.7" height="11.9"/>
		<path class="st0" d="M299.5,61.2c-0.4-0.4-0.9-0.7-1.4-1c-1.1-0.5-2.5-0.5-3.6,0c-0.5,0.2-1,0.6-1.4,1c-0.4,0.4-0.7,0.9-0.9,1.4
			c-0.2,0.5-0.3,1.1-0.3,1.7c0,0.6,0.1,1.2,0.3,1.7c0.2,0.5,0.5,1,0.9,1.4c0.4,0.4,0.9,0.7,1.4,1c0.5,0.2,1.1,0.4,1.8,0.4
			c0.6,0,1.2-0.1,1.8-0.4c0.6-0.2,1-0.6,1.4-1c0.4-0.4,0.7-0.9,0.9-1.4c0.2-0.6,0.3-1.1,0.3-1.7c0-0.6-0.1-1.2-0.3-1.7
			C300.2,62.1,299.9,61.6,299.5,61.2z M299,64.4c0,0.4-0.1,0.8-0.2,1.1c-0.1,0.4-0.3,0.7-0.6,0.9c-0.2,0.3-0.5,0.5-0.9,0.6
			c-0.6,0.3-1.5,0.3-2.2,0c-0.3-0.2-0.6-0.4-0.9-0.6c-0.2-0.3-0.4-0.6-0.6-0.9c-0.1-0.4-0.2-0.7-0.2-1.1c0-0.4,0.1-0.8,0.2-1.1
			c0.1-0.3,0.3-0.6,0.6-0.9c0.2-0.3,0.5-0.5,0.8-0.6c0.3-0.1,0.7-0.2,1.1-0.2c0.4,0,0.8,0.1,1.1,0.2c0.4,0.2,0.6,0.4,0.9,0.6
			c0.2,0.3,0.4,0.6,0.6,0.9C298.9,63.6,299,64,299,64.4z"/>
		<path class="st0" d="M309.8,61.1c-0.4-0.4-0.8-0.7-1.3-0.9c-0.8-0.3-1.8-0.4-2.6-0.1c-0.3,0.1-0.6,0.2-0.9,0.4
			c-0.3,0.2-0.5,0.4-0.7,0.6c0,0-0.1,0.1-0.1,0.1v-1.1h-1.7v11.1h1.7v-3.6c0,0,0.1,0.1,0.1,0.1c0.2,0.2,0.4,0.4,0.7,0.6
			c0.3,0.2,0.6,0.3,0.9,0.4c0.8,0.2,1.8,0.2,2.6-0.2c0.5-0.2,0.9-0.5,1.3-0.9c0.4-0.4,0.7-0.9,0.9-1.4c0.2-0.6,0.3-1.2,0.3-1.9
			c0-0.7-0.1-1.3-0.3-1.9C310.5,61.9,310.2,61.5,309.8,61.1z M309.3,64.4c0,0.4-0.1,0.9-0.2,1.2c-0.1,0.4-0.3,0.7-0.6,0.9
			c-0.2,0.2-0.5,0.4-0.8,0.6c-0.6,0.2-1.3,0.3-2,0c-0.3-0.1-0.6-0.3-0.9-0.6c-0.3-0.2-0.5-0.5-0.6-0.9c-0.1-0.4-0.2-0.8-0.2-1.2
			c0-0.4,0.1-0.8,0.2-1.2c0.1-0.4,0.4-0.7,0.6-0.9c0.3-0.2,0.5-0.4,0.9-0.6c0.3-0.1,0.6-0.2,1-0.2c0.4,0,0.7,0.1,1,0.2
			c0.3,0.1,0.6,0.3,0.8,0.6c0.2,0.3,0.4,0.6,0.6,0.9C309.3,63.5,309.3,63.9,309.3,64.4z"/>
		<path class="st0" d="M322.3,59.9c-0.4,0-0.7,0-1,0.1c-0.3,0.1-0.6,0.2-0.8,0.4c-0.3,0.2-0.5,0.4-0.7,0.6c-0.1,0.1-0.2,0.2-0.3,0.3
			c-0.2-0.3-0.5-0.6-0.8-0.9c-0.5-0.3-1.1-0.5-1.8-0.5c-0.4,0-0.7,0-1,0.1c-0.3,0.1-0.5,0.2-0.8,0.4c-0.2,0.2-0.4,0.3-0.6,0.5v-0.9
			h-1.7v8.6h1.7v-4.8c0-0.4,0-0.7,0.2-0.9c0.1-0.3,0.3-0.5,0.4-0.7c0.2-0.2,0.4-0.4,0.6-0.5c0.2-0.1,0.5-0.2,0.8-0.2
			c0.6,0,1,0.2,1.3,0.5c0.3,0.4,0.5,0.9,0.5,1.6v5h1.7v-4.9c0-0.4,0.1-0.7,0.2-1c0.1-0.3,0.2-0.5,0.4-0.7c0.2-0.2,0.4-0.3,0.6-0.4
			c0.2-0.1,0.5-0.1,0.8-0.1c0.6,0,1,0.2,1.4,0.5c0.3,0.4,0.5,0.9,0.5,1.6v5h1.7v-5.3c0-1.1-0.3-1.9-0.9-2.5
			C324.1,60.2,323.3,59.9,322.3,59.9z"/>
		<path class="st0" d="M334.2,61.2L334.2,61.2c-0.4-0.4-0.8-0.8-1.3-1c-0.5-0.2-1.1-0.4-1.7-0.4c-0.6,0-1.2,0.1-1.7,0.4
			c-0.5,0.2-1,0.6-1.3,1c-0.4,0.4-0.7,0.9-0.8,1.4c-0.2,0.6-0.3,1.1-0.3,1.7c0,0.7,0.1,1.3,0.3,1.8c0.2,0.5,0.5,1,0.9,1.4
			c0.4,0.4,0.8,0.7,1.4,0.9c0.5,0.2,1.1,0.3,1.7,0.3c0.8,0,1.5-0.1,2-0.4c0.6-0.3,1-0.7,1.5-1.2l0.2-0.2l-1.1-1l-0.2,0.2
			c-0.3,0.3-0.6,0.6-1,0.8c-0.4,0.2-0.8,0.3-1.3,0.3c-0.3,0-0.6-0.1-0.9-0.2c-0.3-0.1-0.6-0.3-0.8-0.5c-0.2-0.2-0.4-0.5-0.6-0.8
			c-0.1-0.2-0.2-0.5-0.3-0.8h6.1l0.2,0l0-0.2c0-0.1,0-0.2,0-0.2v-0.2c0-0.6-0.1-1.2-0.3-1.7C334.8,62.1,334.6,61.7,334.2,61.2z
			 M333.5,63.7h-4.6c0-0.3,0.1-0.5,0.2-0.7c0.1-0.3,0.3-0.6,0.5-0.8c0.2-0.2,0.4-0.4,0.7-0.5c0.6-0.3,1.3-0.2,1.8,0
			c0.3,0.1,0.5,0.3,0.7,0.5c0.2,0.2,0.3,0.5,0.5,0.8C333.4,63.2,333.5,63.4,333.5,63.7z"/>
		<path class="st0" d="M343.5,60.9L343.5,60.9c-0.3-0.3-0.7-0.5-1.1-0.7c-0.4-0.2-0.9-0.2-1.4-0.2c-0.8,0-1.4,0.2-1.8,0.5
			c-0.2,0.2-0.5,0.4-0.7,0.6v-0.9h-1.7v8.6h1.7v-4.9c0-0.3,0.1-0.7,0.2-0.9c0.1-0.3,0.3-0.5,0.5-0.7c0.2-0.2,0.4-0.4,0.7-0.5
			c0.3-0.1,0.6-0.2,0.9-0.2c0.6,0,1.1,0.2,1.5,0.6c0.3,0.4,0.5,0.9,0.5,1.6v5h1.7v-5.3c0-0.5-0.1-1-0.2-1.4
			C344,61.5,343.8,61.2,343.5,60.9z"/>
		<path class="st0" d="M351.2,61.6v-1.6h-2.6v-2.4h-1.7v2.4h-1.1v1.6h1.1v4.6c0,0.5,0.1,0.8,0.2,1.1c0.1,0.3,0.3,0.6,0.5,0.8
			c0.2,0.2,0.5,0.4,0.8,0.5c0.3,0.1,0.6,0.1,1,0.1c0.3,0,0.6,0,0.9-0.1c0.2-0.1,0.5-0.2,0.7-0.3l0.1-0.1v-1.6l-0.4,0.2
			c-0.2,0.1-0.4,0.2-0.5,0.2c-0.5,0.1-1,0.1-1.4-0.2c-0.2-0.1-0.3-0.4-0.3-0.9v-4.5H351.2z"/>
	</g>
</g>
</svg>
